<?xml version="1.0" encoding="utf-8"?>
<!-- Generator: Adobe Illustrator 22.0.0, SVG Export Plug-In . SVG Version: 6.00 Build 0)  -->
<svg version="1.1" id="Capa_1" xmlns="http://www.w3.org/2000/svg" xmlns:xlink="http://www.w3.org/1999/xlink" x="0px" y="0px"
	 viewBox="0 0 33.2 33.2" style="enable-background:new 0 0 33.2 33.2;" xml:space="preserve">
<style type="text/css">
	.st0{fill:#808080;}
	.st1{fill:#FFFFFF;}
</style>
<circle cx="16.6" cy="16.6" r="16.6"/>
<g id="LINES">
	<g>
		<rect x="-140.7" y="-658.1" class="st0" width="0.5" height="302.3"/>
	</g>
	<g>
		<rect x="-561.2" y="-504.5" class="st0" width="401.7" height="0.5"/>
	</g>
	<g>
		<rect x="-561.2" y="-356.3" class="st0" width="401.7" height="0.5"/>
	</g>
	<g>
		<rect x="-121.4" y="-504.5" class="st0" width="401.7" height="0.5"/>
	</g>
	<g>
		<rect x="-121.4" y="-356.3" class="st0" width="401.7" height="0.5"/>
	</g>
	<g>
		<rect x="-427.1" y="-212.3" class="st0" width="573.4" height="0.5"/>
	</g>
</g>
<g id="ELEMENTS">
	<g>
		<path class="st1" d="M20.4,16.5l-5.2-2.8c-0.2-0.1-0.9,0-0.9,0.3v5.5c0,0.2,0.7,0.4,0.9,0.3l5.5-2.7
			C20.8,16.9,20.6,16.6,20.4,16.5z"/>
		<path class="st1" d="M16.6,0C7.4,0,0,7.4,0,16.6s7.4,16.6,16.6,16.6s16.6-7.4,16.6-16.6S25.7,0,16.6,0z M27.7,19.4
			c0,2.6-2.1,4.8-4.8,4.8H10.8c-2.6,0-4.8-2.1-4.8-4.8v-5.7c0-2.6,2.1-4.8,4.8-4.8H23c2.6,0,4.8,2.1,4.8,4.8L27.7,19.4L27.7,19.4z"
			/>
	</g>
</g>
</svg>
