<?xml version="1.0" encoding="utf-8"?>
<!-- Generator: Adobe Illustrator 22.0.0, SVG Export Plug-In . SVG Version: 6.00 Build 0)  -->
<svg version="1.1" id="Capa_1" xmlns="http://www.w3.org/2000/svg" xmlns:xlink="http://www.w3.org/1999/xlink" x="0px" y="0px"
	 viewBox="0 0 33.2 33.2" style="enable-background:new 0 0 33.2 33.2;" xml:space="preserve">
<style type="text/css">
	.st0{fill:#808080;}
	.st1{fill:#FFFFFF;}
</style>
<g id="LINES">
	<g>
		<rect x="99.4" y="-658.1" class="st0" width="0.5" height="302.3"/>
	</g>
	<g>
		<rect x="-321.1" y="-504.5" class="st0" width="401.7" height="0.5"/>
	</g>
	<g>
		<rect x="-321.1" y="-356.3" class="st0" width="401.7" height="0.5"/>
	</g>
	<g>
		<rect x="118.7" y="-504.5" class="st0" width="401.7" height="0.5"/>
	</g>
	<g>
		<rect x="118.7" y="-356.3" class="st0" width="401.7" height="0.5"/>
	</g>
	<g>
		<rect x="-187" y="-212.3" class="st0" width="573.4" height="0.5"/>
	</g>
</g>
<circle cx="16.6" cy="16.6" r="16.6"/>
<g id="ELEMENTS">
	<g>
		<path class="st1" d="M16.7,13.4c-1.7,0-3.2,1.4-3.2,3.2s1.4,3.2,3.2,3.2c1.7,0,3.2-1.4,3.2-3.2S18.4,13.4,16.7,13.4z"/>
		<path class="st1" d="M20.6,8.4h-8c-2.3,0-4.1,1.9-4.1,4.1v8c0,2.3,1.9,4.1,4.1,4.1h8c2.3,0,4.1-1.9,4.1-4.1v-8
			C24.8,10.3,22.9,8.4,20.6,8.4z M16.7,21.5c-2.7,0-5-2.2-5-5c0-2.7,2.2-5,5-5c2.7,0,5,2.2,5,5C21.6,19.3,19.4,21.5,16.7,21.5z
			 M21.9,12.5c-0.7,0-1.2-0.5-1.2-1.2s0.5-1.2,1.2-1.2s1.2,0.5,1.2,1.2S22.6,12.5,21.9,12.5z"/>
		<path class="st1" d="M16.6,0C7.4,0,0,7.4,0,16.6s7.4,16.6,16.6,16.6s16.6-7.4,16.6-16.6S25.7,0,16.6,0z M26.6,20.6
			c0,3.3-2.7,6-6,6h-8c-3.3,0-6-2.7-6-6v-8c0-3.3,2.7-6,6-6h8c3.3,0,6,2.7,6,6V20.6z"/>
	</g>
</g>
</svg>
