<?xml version="1.0" encoding="utf-8"?>
<!-- Generator: Adobe Illustrator 22.0.0, SVG Export Plug-In . SVG Version: 6.00 Build 0)  -->
<svg version="1.1" id="Capa_1" xmlns="http://www.w3.org/2000/svg" xmlns:xlink="http://www.w3.org/1999/xlink" x="0px" y="0px"
	 viewBox="0 0 164.1 38.1" style="enable-background:new 0 0 164.1 38.1;" xml:space="preserve">
<style type="text/css">
	.st0{enable-background:new    ;}
	.st1{fill:#FFFFFF;}
</style>
<g>
	<g class="st0">
		<path class="st1" d="M18.9,24V9.7l-5.2,10.4h-3L5.5,9.7v14.4H0v-24h6l6.2,12.5l6.3-12.5h6v24h-5.6V24z"/>
		<path class="st1" d="M32.7,24l9.2-24h4.5l9.2,24h-5.9l-1.9-5.4h-7.5L38.5,24H32.7z M44.1,5.9l-2.9,8.9h5.6L44.1,5.9z"/>
		<path class="st1" d="M63.8,24V0H74c1.1,0,2.2,0.2,3.2,0.7s1.8,1.1,2.5,1.9s1.2,1.6,1.6,2.6s0.6,1.9,0.6,2.9c0,1.1-0.2,2.1-0.6,3
			c-0.4,1-0.9,1.8-1.6,2.6c-0.6,0.9-1.4,1.5-2.4,1.9c-0.9,0.5-2,0.7-3.1,0.7h-4.9V24C69.3,24,63.8,24,63.8,24z M69.3,11.5h4.5
			c0.7,0,1.2-0.3,1.7-0.8c0.5-0.6,0.7-1.4,0.7-2.5c0-0.6-0.1-1-0.2-1.5s-0.3-0.7-0.6-1c-0.2-0.3-0.5-0.5-0.8-0.6S74,4.9,73.7,4.9
			h-4.3L69.3,11.5L69.3,11.5z"/>
		<path class="st1" d="M86.6,24l9.2-24h4.5l9.2,24h-5.9l-1.9-5.4h-7.5L92.4,24H86.6z M98,5.9l-2.9,8.9h5.6L98,5.9z"/>
		<path class="st1" d="M117.7,24V0h5.5v19.1h11.6V24H117.7z"/>
		<path class="st1" d="M141.2,24l9.2-24h4.5l9.2,24h-5.9l-1.9-5.4h-7.5L147,24H141.2z M152.6,5.9l-2.9,8.9h5.6L152.6,5.9z"/>
	</g>
	<g class="st0">
		<path class="st1" d="M3.6,35.7c-0.4,0-0.8-0.1-1.1-0.3c-0.4-0.2-0.6-0.5-0.8-0.8v3.2H0v-8h1.5v0.9c0.2-0.3,0.5-0.6,0.8-0.8
			c0.3-0.2,0.7-0.3,1.1-0.3c0.4,0,0.7,0.1,1.1,0.2s0.6,0.4,0.8,0.6c0.2,0.3,0.4,0.6,0.6,0.9C6,31.7,6.1,32,6.1,32.5
			c0,0.4-0.1,0.8-0.2,1.2c-0.1,0.4-0.3,0.7-0.5,0.9c-0.2,0.3-0.5,0.5-0.8,0.6C4.3,35.6,3.9,35.7,3.6,35.7z M3,34.2
			c0.2,0,0.4,0,0.5-0.1s0.3-0.2,0.4-0.3c0.1-0.1,0.2-0.3,0.3-0.5c0.1-0.2,0.1-0.4,0.1-0.6c0-0.2,0-0.4-0.1-0.6
			c-0.1-0.2-0.2-0.4-0.3-0.5c-0.1-0.1-0.3-0.2-0.4-0.3c-0.2-0.1-0.4-0.1-0.6-0.1c-0.2,0-0.5,0.1-0.7,0.2C2,31.5,1.8,31.7,1.7,32v1.2
			c0.1,0.3,0.3,0.5,0.5,0.7C2.5,34.1,2.7,34.2,3,34.2z"/>
		<path class="st1" d="M12.5,31.3c-0.4,0-0.8,0.1-1.1,0.2c-0.3,0.1-0.6,0.3-0.7,0.6v3.4H9v-5.7h1.6V31c0.2-0.4,0.5-0.7,0.8-0.9
			s0.6-0.3,1-0.3c0.1,0,0.2,0,0.3,0v1.5H12.5z"/>
		<path class="st1" d="M17.9,35.7c-0.5,0-0.9-0.1-1.3-0.2c-0.4-0.2-0.7-0.4-1-0.6S15.1,34.3,15,34c-0.1-0.4-0.2-0.7-0.2-1.1
			c0-0.4,0.1-0.8,0.2-1.1c0.1-0.4,0.3-0.7,0.6-0.9s0.6-0.5,1-0.7s0.8-0.2,1.3-0.2s0.9,0.1,1.3,0.2c0.4,0.2,0.7,0.4,1,0.7
			s0.5,0.6,0.6,0.9c0.1,0.4,0.2,0.7,0.2,1.1c0,0.4-0.1,0.8-0.2,1.1c-0.1,0.4-0.3,0.7-0.6,0.9c-0.3,0.2-0.6,0.5-1,0.6
			C18.8,35.6,18.4,35.7,17.9,35.7z M16.6,32.7c0,0.5,0.1,0.8,0.4,1.1c0.2,0.3,0.5,0.4,0.9,0.4c0.2,0,0.3,0,0.5-0.1s0.3-0.2,0.4-0.3
			s0.2-0.3,0.3-0.5c0.1-0.2,0.1-0.4,0.1-0.6c0-0.5-0.1-0.8-0.4-1.1s-0.5-0.4-0.9-0.4c-0.2,0-0.4,0-0.5,0.1c-0.2,0.1-0.3,0.2-0.4,0.3
			s-0.2,0.3-0.3,0.5C16.7,32.3,16.6,32.5,16.6,32.7z"/>
		<path class="st1" d="M23.6,36.4c0.2,0.1,0.3,0.1,0.4,0.1s0.3,0,0.4,0c0.2,0,0.3-0.1,0.5-0.2c0.1-0.1,0.2-0.4,0.3-0.8L23,29.8h1.8
			l1.3,4.2l1.1-4.2h1.6l-2.2,6.7c-0.2,0.5-0.4,0.9-0.8,1.2c-0.4,0.3-0.8,0.4-1.3,0.4c-0.2,0-0.3,0-0.5,0S23.7,38,23.5,38v-1.6H23.6z
			"/>
		<path class="st1" d="M34.3,35.7c-0.5,0-0.9-0.1-1.3-0.2c-0.4-0.2-0.7-0.4-1-0.6c-0.3-0.3-0.5-0.6-0.6-0.9s-0.2-0.7-0.2-1.1
			c0-0.4,0.1-0.8,0.2-1.2c0.1-0.4,0.3-0.7,0.6-1c0.3-0.3,0.6-0.5,1-0.7s0.8-0.2,1.3-0.2s0.9,0.1,1.3,0.2c0.4,0.2,0.7,0.4,1,0.6
			s0.5,0.6,0.6,0.9c0.1,0.4,0.2,0.7,0.2,1.1c0,0.1,0,0.2,0,0.3s0,0.2,0,0.3h-4.3c0,0.4,0.2,0.7,0.4,0.9c0.3,0.2,0.5,0.3,0.9,0.3
			c0.3,0,0.5-0.1,0.7-0.2c0.2-0.1,0.4-0.3,0.5-0.5l1.5,0.4c-0.2,0.5-0.6,0.8-1,1.1C35.5,35.5,35,35.7,34.3,35.7z M35.5,32.1
			c0-0.4-0.2-0.7-0.4-0.9s-0.5-0.3-0.8-0.3s-0.6,0.1-0.8,0.3s-0.4,0.5-0.4,0.9H35.5z"/>
		<path class="st1" d="M39.8,32.7c0-0.4,0.1-0.8,0.2-1.1s0.3-0.7,0.6-0.9s0.6-0.5,1-0.6c0.4-0.2,0.8-0.2,1.3-0.2
			c0.7,0,1.2,0.1,1.7,0.4c0.5,0.3,0.8,0.6,1,1.1l-1.7,0.5c-0.2-0.4-0.6-0.5-1-0.5s-0.7,0.1-0.9,0.4c-0.2,0.3-0.4,0.6-0.4,1.1
			c0,0.2,0,0.4,0.1,0.6s0.2,0.3,0.3,0.5c0.1,0.1,0.3,0.2,0.4,0.3c0.2,0.1,0.3,0.1,0.5,0.1s0.4-0.1,0.6-0.2c0.2-0.1,0.3-0.2,0.4-0.4
			l1.7,0.5c-0.2,0.4-0.5,0.8-1,1.1c-0.5,0.3-1,0.4-1.7,0.4c-0.5,0-0.9-0.1-1.3-0.2c-0.4-0.2-0.7-0.4-1-0.7c-0.3-0.3-0.5-0.6-0.6-0.9
			C39.9,33.4,39.8,33.1,39.8,32.7z"/>
		<path class="st1" d="M52,35.2c-0.2,0.1-0.5,0.2-0.8,0.3s-0.6,0.1-0.9,0.1c-0.2,0-0.4,0-0.6-0.1c-0.2-0.1-0.4-0.1-0.5-0.3
			c-0.1-0.1-0.3-0.3-0.3-0.5c-0.1-0.2-0.1-0.4-0.1-0.7v-3h-0.7v-1.3h0.7v-1.8h1.7v1.8h1.2V31h-1.2v2.4c0,0.2,0,0.3,0.1,0.4
			c0.1,0.1,0.2,0.1,0.4,0.1c0.1,0,0.3,0,0.4-0.1c0.1,0,0.3-0.1,0.4-0.1L52,35.2z"/>
		<path class="st1" d="M57.4,35.7c-0.5,0-0.9-0.1-1.3-0.2c-0.4-0.2-0.7-0.4-1-0.6s-0.5-0.6-0.6-0.9c-0.1-0.4-0.2-0.7-0.2-1.1
			c0-0.4,0.1-0.8,0.2-1.1c0.1-0.4,0.3-0.7,0.6-0.9s0.6-0.5,1-0.7s0.8-0.2,1.3-0.2s0.9,0.1,1.3,0.2c0.4,0.2,0.7,0.4,1,0.7
			s0.5,0.6,0.6,0.9c0.1,0.4,0.2,0.7,0.2,1.1c0,0.4-0.1,0.8-0.2,1.1c-0.1,0.4-0.3,0.7-0.6,0.9c-0.3,0.2-0.6,0.5-1,0.6
			S57.9,35.7,57.4,35.7z M56.1,32.7c0,0.5,0.1,0.8,0.4,1.1c0.3,0.3,0.5,0.4,0.9,0.4c0.2,0,0.3,0,0.5-0.1c0.2-0.1,0.3-0.2,0.4-0.3
			s0.2-0.3,0.3-0.5c0.1-0.2,0.1-0.4,0.1-0.6c0-0.5-0.1-0.8-0.4-1.1c-0.2-0.3-0.5-0.4-0.9-0.4c-0.2,0-0.4,0-0.5,0.1
			c-0.2,0.1-0.3,0.2-0.4,0.3c-0.1,0.1-0.2,0.3-0.3,0.5C56.1,32.3,56.1,32.5,56.1,32.7z"/>
		<path class="st1" d="M65.6,35.7c-0.2,0-0.5,0-0.7-0.1c-0.3,0-0.5-0.1-0.8-0.1c-0.3-0.1-0.5-0.1-0.7-0.2S63,35.1,62.8,35l0.7-1.2
			c0.4,0.2,0.7,0.4,1.1,0.5s0.7,0.2,1,0.2s0.4,0,0.6-0.1c0.1-0.1,0.2-0.2,0.2-0.3s-0.1-0.4-0.3-0.5s-0.5-0.2-0.9-0.3s-0.7-0.2-1-0.3
			s-0.5-0.2-0.6-0.3c-0.2-0.1-0.3-0.3-0.4-0.4c-0.1-0.2-0.1-0.4-0.1-0.7s0.1-0.6,0.2-0.8s0.3-0.4,0.5-0.6s0.5-0.3,0.7-0.4
			s0.6-0.1,0.9-0.1c0.4,0,0.8,0.1,1.2,0.2s0.8,0.3,1.2,0.5l-0.7,1.1c-0.4-0.2-0.7-0.3-1-0.4C65.8,31,65.5,31,65.3,31
			c-0.2,0-0.4,0-0.5,0.1s-0.2,0.2-0.2,0.4c0,0.1,0,0.1,0.1,0.2s0.1,0.1,0.2,0.2c0.1,0,0.2,0.1,0.3,0.1s0.3,0.1,0.5,0.1
			c0.4,0.1,0.8,0.2,1.1,0.3c0.3,0.1,0.5,0.2,0.7,0.4c0.2,0.1,0.3,0.3,0.4,0.5c0.1,0.2,0.1,0.4,0.1,0.6c0,0.3-0.1,0.5-0.2,0.8
			c-0.1,0.2-0.3,0.4-0.5,0.6s-0.5,0.3-0.8,0.4C66.3,35.6,66,35.7,65.6,35.7z"/>
		<path class="st1" d="M75.1,32.7c0-0.4,0.1-0.8,0.2-1.1c0.1-0.4,0.3-0.7,0.6-0.9s0.6-0.5,1-0.6c0.4-0.2,0.8-0.2,1.3-0.2
			c0.7,0,1.2,0.1,1.7,0.4c0.5,0.3,0.8,0.6,1,1.1l-1.8,0.3c-0.2-0.4-0.6-0.5-1-0.5s-0.7,0.1-0.9,0.4c-0.2,0.3-0.4,0.6-0.4,1.1
			c0,0.2,0,0.4,0.1,0.6c0.1,0.2,0.2,0.3,0.3,0.5c0.1,0.2,0.3,0.2,0.4,0.3c0.2,0.1,0.3,0.1,0.5,0.1s0.4-0.1,0.6-0.2
			c0.2-0.1,0.3-0.2,0.4-0.4l1.7,0.5c-0.2,0.4-0.5,0.8-1,1.1c-0.5,0.3-1,0.4-1.7,0.4c-0.5,0-0.9-0.1-1.3-0.2c-0.4-0.2-0.7-0.4-1-0.7
			c-0.3-0.3-0.5-0.6-0.6-0.9C75.1,33.4,75.1,33.1,75.1,32.7z"/>
		<path class="st1" d="M86.3,35.7c-0.5,0-0.9-0.1-1.3-0.2c-0.4-0.2-0.7-0.4-1-0.6s-0.5-0.6-0.6-0.9c-0.1-0.4-0.2-0.7-0.2-1.1
			c0-0.4,0.1-0.8,0.2-1.1c0.1-0.4,0.3-0.7,0.6-0.9s0.6-0.5,1-0.7s0.8-0.2,1.3-0.2s0.9,0.1,1.3,0.2c0.4,0.2,0.7,0.4,1,0.7
			s0.5,0.6,0.6,0.9c0.1,0.4,0.2,0.7,0.2,1.1c0,0.4-0.1,0.8-0.2,1.1c-0.1,0.4-0.3,0.7-0.6,0.9c-0.3,0.2-0.6,0.5-1,0.6
			S86.8,35.7,86.3,35.7z M85,32.7c0,0.5,0.1,0.8,0.4,1.1c0.2,0.3,0.5,0.4,0.9,0.4c0.2,0,0.3,0,0.5-0.1s0.3-0.2,0.4-0.3
			s0.2-0.3,0.3-0.5c0.1-0.2,0.1-0.4,0.1-0.6c0-0.5-0.1-0.8-0.4-1.1s-0.5-0.4-0.9-0.4c-0.2,0-0.4,0-0.5,0.1c-0.2,0.1-0.3,0.2-0.4,0.3
			s-0.2,0.3-0.3,0.5C85.1,32.3,85,32.5,85,32.7z"/>
		<path class="st1" d="M97.7,35.5H96v-3.2c0-0.4-0.1-0.7-0.2-0.8c-0.1-0.2-0.3-0.3-0.6-0.3c-0.1,0-0.2,0-0.4,0.1
			c-0.1,0.1-0.2,0.1-0.4,0.2c-0.1,0.1-0.2,0.2-0.3,0.3c-0.1,0.1-0.2,0.3-0.2,0.4v3.3h-1.7v-5.7h1.6v1c0.2-0.3,0.5-0.6,0.9-0.8
			s0.8-0.3,1.3-0.3c0.4,0,0.7,0.1,0.9,0.2c0.2,0.1,0.4,0.3,0.5,0.5s0.2,0.4,0.2,0.7s0.1,0.5,0.1,0.7C97.7,31.8,97.7,35.5,97.7,35.5z
			"/>
		<path class="st1" d="M107.8,35.7c-0.2,0-0.5,0-0.7-0.1c-0.3,0-0.5-0.1-0.8-0.1s-0.5-0.1-0.7-0.2c-0.2-0.1-0.4-0.2-0.6-0.3l0.7-1.2
			c0.4,0.2,0.7,0.4,1.1,0.5s0.7,0.2,1,0.2s0.4,0,0.6-0.1c0.1-0.1,0.2-0.2,0.2-0.3s-0.1-0.3-0.3-0.4c-0.2-0.1-0.5-0.2-0.9-0.3
			s-0.7-0.2-1-0.3s-0.5-0.2-0.6-0.3s-0.3-0.3-0.4-0.4c-0.1-0.2-0.1-0.3-0.1-0.6c0-0.3,0.1-0.6,0.2-0.8s0.3-0.4,0.5-0.6
			s0.5-0.3,0.7-0.4s0.6-0.1,0.9-0.1c0.4,0,0.8,0.1,1.2,0.2c0.4,0.1,0.8,0.3,1.2,0.5l-0.7,1.1c-0.4-0.2-0.7-0.3-1-0.4
			s-0.6-0.1-0.8-0.1c-0.2,0-0.4,0-0.5,0.1s-0.2,0.2-0.2,0.4c0,0.1,0,0.1,0.1,0.2c0,0.1,0.1,0.1,0.2,0.2c0.1,0,0.2,0.1,0.3,0.1
			c0.1,0,0.3,0.1,0.5,0.1c0.4,0.1,0.8,0.2,1.1,0.3c0.3,0.1,0.5,0.2,0.7,0.4c0.2,0.1,0.3,0.3,0.4,0.5c0.1,0.2,0.1,0.4,0.1,0.6
			c0,0.3-0.1,0.5-0.2,0.8c-0.1,0.2-0.3,0.4-0.5,0.6s-0.5,0.3-0.8,0.4C108.5,35.6,108.2,35.7,107.8,35.7z"/>
		<path class="st1" d="M115.8,35.7c-0.5,0-0.9-0.1-1.3-0.2c-0.4-0.2-0.7-0.4-1-0.6c-0.3-0.3-0.5-0.6-0.6-0.9s-0.2-0.7-0.2-1.1
			c0-0.4,0.1-0.8,0.2-1.2c0.1-0.4,0.3-0.7,0.6-1s0.6-0.5,1-0.7s0.8-0.2,1.3-0.2s0.9,0.1,1.3,0.2c0.4,0.2,0.7,0.4,1,0.6
			s0.5,0.6,0.6,0.9c0.1,0.4,0.2,0.7,0.2,1.1c0,0.1,0,0.2,0,0.3s0,0.2,0,0.3h-4.2c0,0.4,0.2,0.7,0.4,0.9c0.3,0.2,0.5,0.3,0.9,0.3
			c0.3,0,0.5-0.1,0.7-0.2c0.2-0.1,0.4-0.3,0.5-0.5l1.5,0.4c-0.2,0.5-0.6,0.8-1,1.1C117,35.5,116.4,35.7,115.8,35.7z M117,32.1
			c0-0.4-0.2-0.7-0.4-0.9c-0.2-0.2-0.5-0.3-0.8-0.3s-0.6,0.1-0.8,0.3c-0.2,0.2-0.4,0.5-0.4,0.9H117z"/>
		<path class="st1" d="M127.1,35.5h-1.7v-3.2c0-0.4-0.1-0.7-0.2-0.8c-0.1-0.2-0.3-0.3-0.6-0.3c-0.1,0-0.2,0-0.4,0.1
			c-0.1,0.1-0.2,0.1-0.4,0.2c-0.1,0.1-0.2,0.2-0.3,0.3s-0.2,0.3-0.2,0.4v3.3h-1.7v-5.7h1.6v1c0.2-0.3,0.5-0.6,0.9-0.8
			s0.8-0.3,1.3-0.3c0.4,0,0.7,0.1,0.9,0.2c0.2,0.1,0.4,0.3,0.5,0.5s0.2,0.4,0.2,0.7s0.1,0.5,0.1,0.7L127.1,35.5L127.1,35.5z"/>
		<path class="st1" d="M134,35.2c-0.2,0.1-0.5,0.2-0.8,0.3s-0.6,0.1-0.9,0.1c-0.2,0-0.4,0-0.6-0.1c-0.2-0.1-0.4-0.1-0.5-0.3
			c-0.1-0.2-0.3-0.3-0.3-0.5c-0.1-0.2-0.1-0.4-0.1-0.7v-3h-0.7v-1.3h0.7v-1.8h1.7v1.8h1.2V31h-1.2v2.4c0,0.2,0,0.3,0.1,0.4
			c0.1,0.1,0.2,0.1,0.4,0.1c0.1,0,0.3,0,0.4-0.1c0.1,0,0.3-0.1,0.4-0.1L134,35.2z"/>
		<path class="st1" d="M136.6,29.2v-1.6h1.7v1.6H136.6z M136.6,35.5v-5.7h1.7v5.7H136.6z"/>
		<path class="st1" d="M143.9,35.7c-0.4,0-0.8-0.1-1.1-0.2s-0.6-0.4-0.9-0.6c-0.2-0.3-0.4-0.6-0.6-0.9c-0.1-0.4-0.2-0.8-0.2-1.2
			s0.1-0.8,0.2-1.2s0.3-0.7,0.5-0.9c0.2-0.3,0.5-0.5,0.8-0.6c0.3-0.2,0.6-0.2,1-0.2s0.8,0.1,1.1,0.3s0.6,0.4,0.8,0.8v-3.4h1.7v6
			c0,0.2,0,0.3,0.1,0.4s0.2,0.1,0.3,0.1v1.5c-0.2,0-0.3,0.1-0.5,0.1c-0.1,0-0.3,0-0.4,0c-0.6,0-1-0.3-1-0.7v-0.3
			c-0.2,0.4-0.5,0.6-0.8,0.8C144.7,35.6,144.3,35.7,143.9,35.7z M144.4,34.2c0.2,0,0.5-0.1,0.7-0.2s0.4-0.3,0.5-0.6v-1.2
			c-0.1-0.3-0.3-0.5-0.5-0.7s-0.5-0.3-0.8-0.3c-0.2,0-0.4,0-0.5,0.1c-0.2,0.1-0.3,0.2-0.4,0.3c-0.1,0.1-0.2,0.3-0.3,0.5
			c-0.1,0.2-0.1,0.4-0.1,0.6c0,0.4,0.1,0.8,0.4,1.1C143.7,34.1,144,34.2,144.4,34.2z"/>
		<path class="st1" d="M153.5,35.7c-0.5,0-0.9-0.1-1.3-0.2c-0.4-0.2-0.7-0.4-1-0.6s-0.5-0.6-0.6-0.9c-0.1-0.4-0.2-0.7-0.2-1.1
			c0-0.4,0.1-0.8,0.2-1.1c0.1-0.4,0.3-0.7,0.6-0.9s0.6-0.5,1-0.7s0.8-0.2,1.3-0.2s0.9,0.1,1.3,0.2c0.4,0.2,0.7,0.4,1,0.7
			s0.5,0.6,0.6,0.9c0.1,0.4,0.2,0.7,0.2,1.1c0,0.4-0.1,0.8-0.2,1.1c-0.1,0.4-0.3,0.7-0.6,0.9c-0.3,0.2-0.6,0.5-1,0.6
			S153.9,35.7,153.5,35.7z M152.2,32.7c0,0.5,0.1,0.8,0.4,1.1c0.2,0.3,0.5,0.4,0.9,0.4c0.2,0,0.3,0,0.5-0.1s0.3-0.2,0.4-0.3
			c0.1-0.1,0.2-0.3,0.3-0.5c0.1-0.2,0.1-0.4,0.1-0.6c0-0.5-0.1-0.8-0.4-1.1s-0.5-0.4-0.9-0.4c-0.2,0-0.4,0-0.5,0.1
			c-0.2,0.1-0.3,0.2-0.4,0.3s-0.2,0.3-0.3,0.5C152.2,32.3,152.2,32.5,152.2,32.7z"/>
		<path class="st1" d="M161.7,35.7c-0.2,0-0.5,0-0.7-0.1c-0.3,0-0.5-0.1-0.8-0.1c-0.3-0.1-0.5-0.1-0.7-0.2c-0.2-0.1-0.4-0.2-0.6-0.3
			l0.7-1.2c0.4,0.2,0.7,0.4,1.1,0.5c0.4,0.1,0.7,0.2,1,0.2s0.4,0,0.6-0.1s0.2-0.2,0.2-0.3s-0.1-0.3-0.3-0.4s-0.5-0.2-0.9-0.3
			s-0.7-0.2-1-0.3s-0.5-0.2-0.6-0.3c-0.2-0.1-0.3-0.3-0.4-0.4c-0.1-0.2-0.1-0.3-0.1-0.6c0-0.3,0.1-0.6,0.2-0.8
			c0.1-0.2,0.3-0.4,0.5-0.6s0.5-0.3,0.7-0.4s0.6-0.1,0.9-0.1c0.4,0,0.8,0.1,1.2,0.2c0.4,0.1,0.8,0.3,1.2,0.5l-0.7,1.1
			c-0.4-0.2-0.7-0.3-1-0.4c-0.3-0.1-0.6-0.1-0.8-0.1s-0.4,0-0.5,0.1s-0.2,0.2-0.2,0.4c0,0.1,0,0.1,0.1,0.2c0,0.1,0.1,0.1,0.2,0.2
			c0.1,0,0.2,0.1,0.3,0.1s0.3,0.1,0.5,0.1c0.4,0.1,0.8,0.2,1.1,0.3s0.5,0.2,0.7,0.4c0.2,0.1,0.3,0.3,0.4,0.5
			c0.1,0.2,0.1,0.4,0.1,0.6c0,0.3-0.1,0.5-0.2,0.8c-0.1,0.2-0.3,0.4-0.5,0.6s-0.5,0.3-0.8,0.4C162.4,35.6,162.1,35.7,161.7,35.7z"/>
	</g>
</g>
</svg>
